# xmcd
#
# Track frame offsets: 
#        150
#        15920
#        33920
#        53740
#        76307
#        96335
#        114357
#        132007
#        143840
#        158795
#        175632
#
# Disc length: 2515 seconds
#
# Revision: 1
# Processed by: cddbd v1.5.2PL0 Copyright (c) Steve Scherf et al.
# Submitted via: ExactAudioCopyFreeDBPlugin 1.0
#
DISCID=7909d10b
DTITLE=Oshio Kotaro - Be Happy
DYEAR=2004
DGENRE=Jazz
TTITLE0=翼 -You Are The Hero-
TTITLE1=ミスティ・ナイト
TTITLE2=天使の日曜日
TTITLE3=ジュピター
TTITLE4=Dear...
TTITLE5=Aqua-Marine
TTITLE6=見上げてごらん夜の星を
TTITLE7=ファイト!
TTITLE8=Busy2
TTITLE9=桜・咲くころ
TTITLE10=坂の上の公園
EXTD=YEAR: 2004
EXTT0=
EXTT1=
EXTT2=
EXTT3=
EXTT4=
EXTT5=
EXTT6=
EXTT7=
EXTT8=
EXTT9=
EXTT10=
PLAYORDER=
